<svg width="94" height="94" viewBox="0 0 94 94" fill="none" xmlns="http://www.w3.org/2000/svg">
<path d="M70.4545 15.7273H23.5455C19.2276 15.7273 15.7273 19.2276 15.7273 23.5455V70.4545C15.7273 74.7724 19.2276 78.2727 23.5455 78.2727H70.4545C74.7724 78.2727 78.2727 74.7724 78.2727 70.4545V23.5455C78.2727 19.2276 74.7724 15.7273 70.4545 15.7273Z" stroke="url(#paint0_linear_2_28)" stroke-width="6.40723" stroke-linecap="square" stroke-linejoin="round"/>
<path d="M58.7273 35.2727H35.2727V58.7273H58.7273V35.2727Z" stroke="url(#paint1_linear_2_28)" stroke-width="6.40723" stroke-linecap="square" stroke-linejoin="round"/>
<path d="M35.2727 4V15.7273" stroke="url(#paint2_linear_2_28)" stroke-width="6.40723" stroke-linecap="square" stroke-linejoin="round"/>
<path d="M58.7273 4V15.7273" stroke="url(#paint3_linear_2_28)" stroke-width="6.40723" stroke-linecap="square" stroke-linejoin="round"/>
<path d="M35.2727 78.2727V90" stroke="url(#paint4_linear_2_28)" stroke-width="6.40723" stroke-linecap="square" stroke-linejoin="round"/>
<path d="M58.7273 78.2727V90" stroke="url(#paint5_linear_2_28)" stroke-width="6.40723" stroke-linecap="square" stroke-linejoin="round"/>
<path d="M78.2727 35.2727H90" stroke="url(#paint6_linear_2_28)" stroke-width="6.40723" stroke-linecap="square" stroke-linejoin="round"/>
<path d="M78.2727 54.8182H90" stroke="url(#paint7_linear_2_28)" stroke-width="6.40723" stroke-linecap="square" stroke-linejoin="round"/>
<path d="M4 35.2727H15.7273" stroke="url(#paint8_linear_2_28)" stroke-width="6.40723" stroke-linecap="square" stroke-linejoin="round"/>
<path d="M4 54.8182H15.7273" stroke="url(#paint9_linear_2_28)" stroke-width="6.40723" stroke-linecap="square" stroke-linejoin="round"/>
<defs>
<linearGradient id="paint0_linear_2_28" x1="47" y1="15.7273" x2="47" y2="78.2727" gradientUnits="userSpaceOnUse">
<stop stop-color="#3548F6"/>
<stop offset="1" stop-color="#FF0BC9"/>
</linearGradient>
<linearGradient id="paint1_linear_2_28" x1="47" y1="35.2727" x2="47" y2="58.7273" gradientUnits="userSpaceOnUse">
<stop stop-color="#3548F6"/>
<stop offset="1" stop-color="#FF0BC9"/>
</linearGradient>
<linearGradient id="paint2_linear_2_28" x1="35.7727" y1="4" x2="35.7727" y2="15.7273" gradientUnits="userSpaceOnUse">
<stop stop-color="#3548F6"/>
<stop offset="1" stop-color="#FF0BC9"/>
</linearGradient>
<linearGradient id="paint3_linear_2_28" x1="59.2273" y1="4" x2="59.2273" y2="15.7273" gradientUnits="userSpaceOnUse">
<stop stop-color="#3548F6"/>
<stop offset="1" stop-color="#FF0BC9"/>
</linearGradient>
<linearGradient id="paint4_linear_2_28" x1="35.7727" y1="78.2727" x2="35.7727" y2="90" gradientUnits="userSpaceOnUse">
<stop stop-color="#3548F6"/>
<stop offset="1" stop-color="#FF0BC9"/>
</linearGradient>
<linearGradient id="paint5_linear_2_28" x1="59.2273" y1="78.2727" x2="59.2273" y2="90" gradientUnits="userSpaceOnUse">
<stop stop-color="#3548F6"/>
<stop offset="1" stop-color="#FF0BC9"/>
</linearGradient>
<linearGradient id="paint6_linear_2_28" x1="84.1364" y1="35.2727" x2="84.1364" y2="36.2727" gradientUnits="userSpaceOnUse">
<stop stop-color="#3548F6"/>
<stop offset="1" stop-color="#FF0BC9"/>
</linearGradient>
<linearGradient id="paint7_linear_2_28" x1="84.1364" y1="54.8182" x2="84.1364" y2="55.8182" gradientUnits="userSpaceOnUse">
<stop stop-color="#3548F6"/>
<stop offset="1" stop-color="#FF0BC9"/>
</linearGradient>
<linearGradient id="paint8_linear_2_28" x1="9.86364" y1="35.2727" x2="9.86364" y2="36.2727" gradientUnits="userSpaceOnUse">
<stop stop-color="#3548F6"/>
<stop offset="1" stop-color="#FF0BC9"/>
</linearGradient>
<linearGradient id="paint9_linear_2_28" x1="9.86364" y1="54.8182" x2="9.86364" y2="55.8182" gradientUnits="userSpaceOnUse">
<stop stop-color="#3548F6"/>
<stop offset="1" stop-color="#FF0BC9"/>
</linearGradient>
</defs>
</svg>
