<svg width="98" height="80" viewBox="0 0 98 80" fill="none" xmlns="http://www.w3.org/2000/svg">
<path d="M94 40H4" stroke="url(#paint0_linear_2_27)" stroke-width="6.40723" stroke-linecap="square" stroke-linejoin="round"/>
<path d="M19.525 8.995L4 40V67C4 69.3869 4.94821 71.6761 6.63604 73.364C8.32387 75.0518 10.6131 76 13 76H85C87.3869 76 89.6761 75.0518 91.364 73.364C93.0518 71.6761 94 69.3869 94 67V40L78.475 8.995C77.7299 7.49554 76.5813 6.23367 75.1583 5.35126C73.7353 4.46885 72.0944 4.00089 70.42 4H27.58C25.9056 4.00089 24.2647 4.46885 22.8417 5.35126C21.4187 6.23367 20.2701 7.49554 19.525 8.995V8.995Z" stroke="url(#paint1_linear_2_27)" stroke-width="6.40723" stroke-linecap="square" stroke-linejoin="round"/>
<path d="M22 58H22.045" stroke="url(#paint2_linear_2_27)" stroke-width="6.40723" stroke-linecap="square" stroke-linejoin="round"/>
<path d="M40 58H40.045" stroke="url(#paint3_linear_2_27)" stroke-width="6.40723" stroke-linecap="square" stroke-linejoin="round"/>
<defs>
<linearGradient id="paint0_linear_2_27" x1="49" y1="40" x2="49" y2="41" gradientUnits="userSpaceOnUse">
<stop stop-color="#3548F6"/>
<stop offset="1" stop-color="#FF0BC9"/>
</linearGradient>
<linearGradient id="paint1_linear_2_27" x1="49" y1="4" x2="49" y2="76" gradientUnits="userSpaceOnUse">
<stop stop-color="#3548F6"/>
<stop offset="1" stop-color="#FF0BC9"/>
</linearGradient>
<linearGradient id="paint2_linear_2_27" x1="22.0225" y1="58" x2="22.0225" y2="59" gradientUnits="userSpaceOnUse">
<stop stop-color="#3548F6"/>
<stop offset="1" stop-color="#FF0BC9"/>
</linearGradient>
<linearGradient id="paint3_linear_2_27" x1="40.0225" y1="58" x2="40.0225" y2="59" gradientUnits="userSpaceOnUse">
<stop stop-color="#3548F6"/>
<stop offset="1" stop-color="#FF0BC9"/>
</linearGradient>
</defs>
</svg>
