<svg width="67" height="56" viewBox="0 0 67 56" fill="none" xmlns="http://www.w3.org/2000/svg">
<path d="M59.0277 39.2514L63.1073 47.3786C63.353 47.8662 63.4693 48.4087 63.4451 48.9542C63.4209 49.4996 63.257 50.0297 62.969 50.4936C62.6811 50.9575 62.2788 51.3397 61.8007 51.6035C61.3227 51.8672 60.7848 52.0037 60.2389 51.9999H6.82241C6.27642 52.0037 5.73861 51.8672 5.26054 51.6035C4.78247 51.3397 4.38017 50.9575 4.09223 50.4936C3.80429 50.0297 3.64036 49.4996 3.61615 48.9542C3.59194 48.4087 3.70827 47.8662 3.95399 47.3786L8.03352 39.2514M59.0277 39.2514V10.5671C59.0277 8.87656 58.3562 7.25524 57.1608 6.05983C55.9653 4.86442 54.344 4.19284 52.6535 4.19284H14.4078C12.7172 4.19284 11.0959 4.86442 9.90051 6.05983C8.7051 7.25524 8.03352 8.87656 8.03352 10.5671V39.2514H59.0277ZM59.0277 39.2514H8.03352H59.0277Z" stroke="url(#paint0_linear_2_26)" stroke-width="6.40723" stroke-linecap="square" stroke-linejoin="round"/>
<defs>
<linearGradient id="paint0_linear_2_26" x1="33.5306" y1="4.19284" x2="33.5306" y2="52" gradientUnits="userSpaceOnUse">
<stop stop-color="#3548F6"/>
<stop offset="1" stop-color="#FF0BC9"/>
</linearGradient>
</defs>
</svg>
