<svg width="1144" height="175" viewBox="0 0 1144 175" fill="none" xmlns="http://www.w3.org/2000/svg">
<path fill-rule="evenodd" clip-rule="evenodd" d="M100.526 173.843V72.7741H77.3141V47.5089H148.314V72.7741H125.103V174.278L225.699 0H0.179214L100.526 173.843Z" fill="white"/>
<path d="M261.169 60.7187H230.569V38.3741H319.806V60.7187H289.349V138H261.169V60.7187ZM410.29 116.225V138H330.304V38.3741H408.439V60.1494H358.199V76.9435H402.462V98.0073H358.199V116.225H410.29ZM475.459 139.993C465.022 139.993 455.629 137.81 447.279 133.446C439.024 128.986 432.525 122.819 427.781 114.944C423.037 107.069 420.665 98.1496 420.665 88.187C420.665 78.2244 423.037 69.3055 427.781 61.4303C432.525 53.5551 439.024 47.4353 447.279 43.0707C455.629 38.6113 465.022 36.3815 475.459 36.3815C484.568 36.3815 492.775 37.9945 500.081 41.2205C507.387 44.4465 513.459 49.0957 518.298 55.1681L500.365 71.3929C493.913 63.6126 486.086 59.7225 476.882 59.7225C471.474 59.7225 466.635 60.9085 462.365 63.2805C458.19 65.6526 454.917 69.0209 452.545 73.3855C450.268 77.6551 449.129 82.589 449.129 88.187C449.129 93.7851 450.268 98.7664 452.545 103.131C454.917 107.401 458.19 110.721 462.365 113.094C466.635 115.466 471.474 116.652 476.882 116.652C486.086 116.652 493.913 112.761 500.365 104.981L518.298 121.206C513.459 127.278 507.387 131.928 500.081 135.154C492.775 138.38 484.568 139.993 475.459 139.993ZM625.65 38.3741V138H597.47V99.1459H559.042V138H530.863V38.3741H559.042V75.8049H597.47V38.3741H625.65ZM725.512 116.225V138H645.527V38.3741H723.662V60.1494H673.422V76.9435H717.685V98.0073H673.422V116.225H725.512ZM741.15 38.3741H769.33V115.655H816.866V138H741.15V38.3741ZM876.728 139.993C866.196 139.993 856.708 137.763 848.263 133.303C839.914 128.844 833.32 122.677 828.481 114.801C823.736 106.926 821.364 98.0547 821.364 88.187C821.364 78.3193 823.736 69.4479 828.481 61.5727C833.32 53.6975 839.914 47.5302 848.263 43.0707C856.708 38.6113 866.196 36.3815 876.728 36.3815C887.26 36.3815 896.701 38.6113 905.05 43.0707C913.495 47.5302 920.089 53.6975 924.833 61.5727C929.672 69.4479 932.092 78.3193 932.092 88.187C932.092 98.0547 929.672 106.926 924.833 114.801C920.089 122.677 913.495 128.844 905.05 133.303C896.701 137.763 887.26 139.993 876.728 139.993ZM876.728 116.652C881.757 116.652 886.311 115.466 890.391 113.094C894.471 110.721 897.697 107.401 900.069 103.131C902.441 98.7664 903.627 93.7851 903.627 88.187C903.627 82.589 902.441 77.6551 900.069 73.3855C897.697 69.0209 894.471 65.6526 890.391 63.2805C886.311 60.9085 881.757 59.7225 876.728 59.7225C871.699 59.7225 867.145 60.9085 863.065 63.2805C858.985 65.6526 855.759 69.0209 853.387 73.3855C851.015 77.6551 849.829 82.589 849.829 88.187C849.829 93.7851 851.015 98.7664 853.387 103.131C855.759 107.401 858.985 110.721 863.065 113.094C867.145 115.466 871.699 116.652 876.728 116.652ZM1041.64 38.3741V138H1018.44L974.462 84.9136V138H946.851V38.3741H970.05L1014.03 91.4605V38.3741H1041.64ZM1096.53 139.993C1088.46 139.993 1080.63 138.996 1073.04 137.004C1065.45 135.011 1059.29 132.355 1054.54 129.034L1063.79 108.255C1068.25 111.196 1073.42 113.568 1079.31 115.371C1085.19 117.173 1090.98 118.075 1096.67 118.075C1107.49 118.075 1112.89 115.371 1112.89 109.962C1112.89 107.116 1111.33 105.029 1108.2 103.7C1105.16 102.277 1100.23 100.806 1093.4 99.2882C1085.9 97.6752 1079.64 95.9673 1074.61 94.1646C1069.58 92.2669 1065.26 89.2782 1061.66 85.1982C1058.05 81.1183 1056.25 75.6152 1056.25 68.6888C1056.25 62.6164 1057.91 57.1607 1061.23 52.3217C1064.55 47.3878 1069.49 43.4977 1076.03 40.6512C1082.67 37.8048 1090.79 36.3815 1100.37 36.3815C1106.92 36.3815 1113.37 37.1406 1119.73 38.6587C1126.08 40.0819 1131.68 42.2168 1136.52 45.0632L1127.84 65.9847C1118.35 60.8611 1109.15 58.2992 1100.23 58.2992C1094.63 58.2992 1090.55 59.1532 1087.99 60.8611C1085.43 62.474 1084.14 64.6089 1084.14 67.2656C1084.14 69.9223 1085.66 71.9148 1088.7 73.2431C1091.74 74.5715 1096.62 75.9473 1103.36 77.3705C1110.95 78.9835 1117.21 80.7388 1122.14 82.6364C1127.17 84.4392 1131.49 87.3805 1135.1 91.4605C1138.8 95.4455 1140.65 100.901 1140.65 107.828C1140.65 113.805 1138.99 119.213 1135.67 124.052C1132.34 128.891 1127.36 132.781 1120.72 135.723C1114.08 138.569 1106.01 139.993 1096.53 139.993Z" fill="white"/>
</svg>
